<?xml version="1.0" encoding="UTF-8"?>
<svg id="a" data-name="Layer 1" xmlns="http://www.w3.org/2000/svg" viewBox="0 0 1000 200">
  <defs>
    <style>
      .b {
        fill: #fff;
      }

      .c {
        fill: #190d1c;
      }

      .d {
        fill: #dcdbdb;
      }

      .e {
        fill: #9b4e9e;
      }

      .f {
        fill: #f7f7f7;
      }

      .g {
        fill: #fec010;
      }
    </style>
  </defs>
  <g>
    <path class="b" d="m358.93,139.31c-.39,0-.63,0-.86,0-8.06,0-16.12,0-24.17.01-.55,0-.91-.16-1.26-.61-7.83-10.07-15.68-20.13-23.53-30.2-.31-.39-.61-.78-1.04-1.33v32.08h-19.35c0-.34,0-.69,0-1.03,0-24.39,0-48.79,0-73.18,0-.55.05-1.11,0-1.65-.05-.61.18-.76.77-.76,5.39.02,10.78,0,16.16,0,.58,0,1.16.02,1.73,0,.48-.02.64.13.64.66-.01,6.95.01,13.9.02,20.85,0,3.3,0,6.6,0,9.97.12-.1.21-.16.27-.24,7.27-9.96,14.54-19.91,21.77-29.89.72-.99,1.44-1.4,2.7-1.38,7.07.07,14.14.03,21.21.03.54,0,1.08,0,1.83,0-.42.55-.69.93-.98,1.29-9.16,11.48-18.32,22.95-27.48,34.42-.1.13-.2.28-.32.39-.46.39-.35.74,0,1.16,2.22,2.71,4.42,5.44,6.62,8.16,8.28,10.24,16.57,20.48,24.85,30.72.1.13.2.26.41.53Z"/>
    <path class="b" d="m808.57,92.98c1.22-1.17,2.35-2.42,3.64-3.46,2.39-1.93,5.26-2.74,8.25-3.11,3.53-.43,7.02-.16,10.41.9,4.65,1.45,8.03,4.39,10.2,8.73.16.32.32.63.47.94.8-1.2,1.54-2.41,2.38-3.55,1.53-2.09,3.4-3.81,5.63-5.18,2.91-1.79,6.07-2.19,9.36-1.94,1.38.11,2.76.38,4.12.65,6.36,1.26,12.69,6.85,13.37,15.22.1,1.17.15,2.34.16,3.52.01,10.98,0,21.95.03,32.93,0,.61-.14.83-.79.83-5.65-.02-11.31,0-16.96,0-.12,0-.24-.02-.41-.04-.02-.18-.06-.36-.06-.54,0-9.18.04-18.36-.06-27.53-.02-1.89-.33-3.84-.92-5.64-1.27-3.91-4.51-5.37-8.51-4.73-3.22.52-5.8,3.7-5.8,7.01,0,9.75,0,19.51,0,29.26,0,.34,0,.67,0,1.01-.03,1.36.15,1.2-1.19,1.21-5.48.02-10.97.01-16.45.01-.16,0-.32-.03-.56-.06v-.88c0-8.48.03-16.97-.03-25.45-.01-1.98-.21-3.98-.57-5.92-.94-5.07-4.67-7.08-9.53-6.17-3.42.64-5.31,2.76-5.88,6.3-.14.89-.22,1.81-.22,2.72-.02,9.32-.02,18.64-.02,27.96,0,1.46,0,1.48-1.45,1.48-5.39,0-10.78,0-16.17.02-.54,0-.63-.21-.63-.68.01-11.65.01-23.29.01-34.94,0-5.27,0-10.54-.03-15.82,0-.61.14-.82.79-.82,5.56.03,11.11.03,16.67.01.59,0,.79.14.77.76-.04,1.69-.02,3.38-.02,4.99Z"/>
    <path class="b" d="m613.48,139.26c.13-.38.24-.71.36-1.04,6.68-18.42,13.36-36.84,20.04-55.26,2.31-6.36,4.61-12.73,6.92-19.09.45-1.24.45-1.23,1.73-1.23,6.9,0,13.81,0,20.71,0,.51,0,.81.1,1.01.65,5.09,14.08,10.19,28.16,15.3,42.24,4.06,11.18,8.12,22.35,12.18,33.52.01.04,0,.09,0,.21-.19.02-.39.06-.58.06-6.74,0-13.47,0-20.21.01-.48,0-.71-.14-.87-.62-5.38-16.16-10.79-32.31-16.19-48.46-.34-1.02-.68-2.04-1.03-3.06-.06-.17-.14-.32-.3-.67-.15.51-.24.82-.34,1.12-4.11,12.3-8.22,24.59-12.33,36.89-1.59,4.74-3.18,9.48-4.76,14.22-.13.39-.26.59-.73.58-6.81-.02-13.62-.01-20.42-.01-.14,0-.28-.02-.49-.05Z"/>
    <path class="b" d="m547.76,87.44c-.91.95-1.75,1.88-2.64,2.74-5.54,5.43-11.09,10.84-16.64,16.26-1.56,1.53-3.13,3.05-4.73,4.53-.45.41-.2.63.08.93,2.99,3.15,5.99,6.3,8.98,9.45,4.62,4.88,9.23,9.77,13.85,14.65,1.03,1.09,2.09,2.16,3.3,3.4-.44.03-.66.05-.88.05-8.03,0-16.07,0-24.1.01-.56,0-.92-.18-1.29-.59-5.17-5.84-10.35-11.67-15.53-17.5-.78-.88-1.59-1.74-2.38-2.6-.14-.15-.31-.29-.62-.59,0,.67,0,1.16,0,1.64,0,6.23-.01,12.46.01,18.69,0,.73-.19.94-.92.94-5.51-.03-11.02-.02-16.52,0-.61,0-.77-.21-.77-.79,0-26.81,0-53.63,0-80.44,0-.49.04-.79.68-.79,5.6.02,11.21.01,16.81.01.21,0,.42.03.72.06v48.35c.07.03.13.07.2.1.45-.48.9-.97,1.36-1.44,5.41-5.56,10.81-11.12,16.23-16.66.25-.26.7-.48,1.05-.48,7.7-.02,15.39,0,23.09,0,.21,0,.42.03.66.05Z"/>
    <path class="b" d="m579.74,141.61c-4.95.03-9.7-.8-14.18-2.88-7.22-3.35-12.52-8.61-14.95-16.25-2.94-9.26-1.87-18.08,4.13-25.94,3.69-4.84,8.63-8.03,14.53-9.73,4.9-1.42,9.86-1.81,14.91-1.19,4.92.6,9.62,1.92,13.77,4.72,7.08,4.77,11.2,11.38,12.15,19.86.98,8.76-1.51,16.41-7.75,22.71-4.39,4.43-9.77,7.05-15.95,7.97-2.21.33-4.44.49-6.66.72Zm.29-16.12c1.64-.17,3.72-.48,5.5-1.69,4.52-3.08,6.49-7.32,5.49-12.75-1.22-6.65-7.92-11.3-14.69-9.07-6.47,2.14-9.87,9.7-7.2,16.11,1.81,4.33,6.13,7.4,10.89,7.4Z"/>
    <path class="b" d="m417.24,113.22c.47-11.7,5.89-20.2,16.62-25.1,5.39-2.46,11.17-3.07,17.06-2.62,4.37.33,8.61,1.29,12.51,3.33,7.87,4.11,12.87,10.51,14.46,19.23,1.99,10.96-1.32,20.18-10.09,27.2-4.1,3.29-8.89,5.22-14.15,5.76-2.81.29-5.67.56-8.48.4-8.85-.5-16.41-3.85-22.04-10.85-3.42-4.25-5.32-9.17-5.75-14.62-.07-.91-.1-1.82-.14-2.73Zm19.04-.54c0,2.74.49,4.84,1.59,6.78,3.32,5.91,10.61,7.93,16.4,3.94,4.47-3.08,6.32-8.9,4.38-14.1-1.92-5.14-5.69-7.82-10.63-7.88-7.28-.08-11.84,6.11-11.75,11.26Z"/>
    <path class="b" d="m902.81,116.45c.09,2.21.36,4.27,1.22,6.24,1.38,3.17,3.88,4.8,7.22,5.36,2.65.44,5.23.37,7.67-.87,2.6-1.32,4.11-3.39,4.26-6.35,0-.12.03-.23.06-.45.41,0,.81,0,1.21,0,5.15.03,10.29.07,15.44.08.63,0,.72.2.72.79-.03,4.17-1.3,7.89-3.86,11.19-2.17,2.79-5.05,4.58-8.23,6-3.35,1.51-6.9,2.15-10.51,2.59-8.79,1.08-16.74-1.04-23.81-6.33-4.26-3.19-6.95-7.48-8.41-12.56-1.08-3.74-1.2-7.56-1-11.4.33-6.35,2.31-12.11,6.73-16.85,2.88-3.09,6.37-5.27,10.38-6.65,4.96-1.7,10.03-2.31,15.26-1.66,2.89.36,5.76.74,8.46,1.9,6.72,2.9,10.95,7.95,13.14,14.84,1.4,4.41,1.92,8.92,1.93,13.52,0,.44-.14.59-.57.58-1.49-.01-2.98.01-4.47.01-10.68,0-21.36,0-32.04,0-.21,0-.43,0-.78,0Zm.56-10.73c.2.03.29.05.38.05,6.4,0,12.79.01,19.19.03.5,0,.56-.25.5-.64-.33-2.37-1.29-4.36-3.3-5.82-2.36-1.71-4.97-2.16-7.79-1.86-2.93.31-5.51,1.29-7.33,3.75-.97,1.32-1.63,2.74-1.66,4.48Z"/>
    <path class="b" d="m384.82,112.42c1.21-2.37,2.38-4.67,3.54-6.97,2.99-5.89,5.99-11.78,8.98-17.68.19-.38.39-.59.86-.58,6.09.02,12.17.02,18.26.03.09,0,.19.02.42.05-.15.36-.26.68-.41.98-2.88,5.49-5.78,10.98-8.66,16.47-2.65,5.05-5.28,10.1-7.91,15.16-3.81,7.3-7.61,14.61-11.41,21.92-2.69,5.16-5.37,10.32-8.05,15.49-.88,1.7-1.78,3.39-2.65,5.09-.18.35-.37.53-.81.53-5.73-.02-11.45-.01-17.18-.01-.16,0-.32-.03-.54-.05.11-.25.17-.45.27-.64,3.85-7.55,7.69-15.11,11.54-22.66,1.18-2.33,2.38-4.64,3.53-6.99.15-.31.16-.82,0-1.11-5.4-10.01-10.83-20.01-16.25-30.01-2.4-4.42-4.79-8.85-7.18-13.27-.14-.27-.26-.55-.44-.94.38,0,.62,0,.87,0,6.62,0,13.23,0,19.85-.03.59,0,.84.24,1.08.72,3.34,6.76,6.7,13.51,10.07,20.26.7,1.41,1.45,2.79,2.22,4.26Z"/>
    <path class="b" d="m697.36,139.4v-52.1h18.14v6.13c.29-.32.42-.47.55-.62,3.24-3.81,7.49-5.77,12.36-6.41,4.16-.55,8.27-.19,12.16,1.49,5.75,2.47,8.98,6.97,10.07,12.99.36,2.01.31,4.09.34,6.15.05,2.75,0,5.51,0,8.27,0,7.07,0,14.14,0,21.21,0,.69-.02,1.4.07,2.08.09.72-.18.89-.86.89-5.08-.02-10.15,0-15.23-.01-.66,0-1.54.15-1.92-.2-.34-.31-.15-1.21-.15-1.86,0-8.03.06-16.06-.02-24.08-.02-2.24-.27-4.5-.72-6.69-.49-2.35-1.71-4.37-4.17-5.2-3.71-1.25-7.14-.75-9.98,2.1-1.59,1.6-2.17,3.71-2.37,5.88-.15,1.62-.11,3.25-.11,4.88,0,8.1,0,16.2.01,24.3,0,.61-.11.88-.82.88-5.63-.02-11.26,0-16.88,0-.14,0-.28-.04-.46-.06Z"/>
    <path class="b" d="m779.42,139.32h-18.02v-51.97c.49,0,.94,0,1.4,0,5.29,0,10.58.01,15.87-.01.62,0,.76.2.76.77-.01,16.39,0,32.78,0,49.17,0,.64,0,1.29,0,2.04Z"/>
    <path class="g" d="m770.4,57.1c5.33.09,9.94,4.2,9.91,10.38-.03,5.13-3.81,10.1-10.14,10.05-5.39-.04-9.84-4.6-9.77-10.21.07-5.75,4.35-10.13,10-10.22Z"/>
    <path class="g" d="m662.49,125.96c-.04,5.61-4.64,10.2-10.22,10.09-5.12-.1-9.77-4.54-9.68-10.3.09-5.69,4.49-10.18,10.05-10.15,5.48.03,9.89,4.66,9.85,10.36Z"/>
  </g>
  <g>
    <circle class="e" cx="147.76" cy="107.23" r="88.43"/>
    <g>
      <g>
        <path class="b" d="m107.38,160.58l-7.7,20.88c13.84,8.98,30.35,14.2,48.07,14.2s34.23-5.22,48.07-14.2l-7.7-20.88h-80.74Z"/>
        <path class="d" d="m172.94,160.58h-50.37c-.77,7.46,1.22,14.24,5.4,20.5l1.23-3.97c1.71,6.76,5.28,12.09,12.41,15.15-.76-1.97-.32-5.11-.32-5.11,1.06,2.75,3.19,5.11,6.47,7.05,3.28-1.94,5.41-4.3,6.47-7.05,0,0,.44,3.14-.32,5.11,7.13-3.06,10.7-8.39,12.41-15.15l1.23,3.97c4.18-6.26,6.18-13.04,5.4-20.5Z"/>
        <rect class="c" x="106.87" y="146.67" width="81.78" height="14.96"/>
        <g>
          <circle class="g" cx="147.73" cy="168.23" r="12.24" transform="translate(-49.71 273.8) rotate(-76.84)"/>
          <path class="e" d="m150.1,177.81c0,.61-1.12,1.1-2.49,1.08-1.37-.02-2.47-.53-2.47-1.14,0-.61,1.12-1.1,2.49-1.08,1.37.02,2.47.53,2.47,1.14Z"/>
          <rect class="e" x="146.18" y="178.76" width="2.84" height=".6" transform="translate(-33.17 324.55) rotate(-89.33)"/>
          <path class="g" d="m160.6,170.19h-25.75c-1.17,0-2.11-.95-2.11-2.11h0c0-1.17.95-2.11,2.11-2.11h25.75c1.17,0,2.11.95,2.11,2.11h0c0,1.17-.95,2.11-2.11,2.11Z"/>
          <rect class="e" x="135.53" y="165.66" width="24.4" height=".6"/>
          <rect class="e" x="135.9" y="169.82" width="23.66" height=".6"/>
        </g>
      </g>
      <g>
        <path class="b" d="m139.42,59.05c-7.6-32.59-31.45-54.71-31.45-54.71,0,0-33.78,45.84-20.04,84.45l51.5-29.73Z"/>
        <path class="e" d="m123.63,65.09c-4.01-19.14-16.59-32.13-16.59-32.13,0,0-17.81,26.92-10.57,49.6l27.16-17.46Z"/>
        <path class="b" d="m156.1,59.05c7.6-32.59,31.45-54.71,31.45-54.71,0,0,33.78,45.84,20.04,84.45l-51.5-29.73Z"/>
        <path class="e" d="m171.89,65.09c4.01-19.14,16.59-32.13,16.59-32.13,0,0,17.81,26.92,10.57,49.6l-27.16-17.46Z"/>
        <path class="b" d="m214.24,103.84c-7.83-32.22-35.44-45.5-66.48-46.09-31.04.59-58.65,13.86-66.48,46.09,0,0-6.4,3.13-9.21,7.77,11.88,29.11,41.4,47.74,75.69,48.5,34.29-.76,63.81-19.38,75.69-48.5-2.81-4.65-9.21-7.77-9.21-7.77Z"/>
        <path class="e" d="m147.73,113.15c-1.77-7.53-2.12-15.13-2.09-22.79.1-7.65.51-15.24,2.09-22.78,1.58,7.54,2,15.14,2.09,22.78.02,7.66-.33,15.26-2.09,22.79h0Z"/>
        <path class="e" d="m183.49,144.63c-15.61,11-36.44,14.57-54.62,8.3-6.04-1.98-11.77-4.8-17-8.3,11.25,5.33,23.34,9.06,35.82,9.02,12.49-.03,24.53-3.69,35.8-9.02h0Z"/>
        <path class="e" d="m99.81,112.57c-5.52-.94-7.42-7.45-4.73-11.93.07,1.22.1,2.37.22,3.48.23,3.46,2.07,6.07,4.5,8.46h0Z"/>
        <path class="e" d="m195.65,112.57c2.44-2.39,4.27-5,4.5-8.46.13-1.11.15-2.26.22-3.48,2.7,4.48.79,11-4.73,11.93h0Z"/>
        <path class="e" d="m143.67,101.32c-6.69-10.89-14.93-7.78-25.87-8.08-3.44-.08-8.38-1.27-8.63-5.52,0,0,.39.53.39.53,1.86,2.62,5.23,2.17,8.12,1.79,4.96-.69,10.55-1.89,15.77-.67,5.83,1.22,9.97,6,10.22,11.95h0Z"/>
        <path class="e" d="m102.23,121.81c-4.3,2.61-10.04,2.32-13.99-.96-4-3.19-5.35-9.18-3.07-13.62,1.02,4.15,2.44,7.85,5.7,10.37,1.97,1.57,4.7,2.57,7.24,3.25,1.37.34,2.74.59,4.12.97h0Z"/>
        <path class="e" d="m193.67,121.81c1.38-.38,2.75-.63,4.12-.97,2.55-.68,5.27-1.68,7.24-3.25,3.26-2.51,4.68-6.21,5.7-10.37,2.28,4.45.93,10.43-3.07,13.62-3.96,3.28-9.7,3.57-13.99.96h0Z"/>
        <path class="e" d="m151.84,101.32c.25-5.93,4.4-10.74,10.22-11.95,5.22-1.21,10.8-.02,15.77.67,2.89.37,6.26.82,8.12-1.79l.39-.53c-.25,4.26-5.19,5.44-8.63,5.52-10.94.3-19.18-2.8-25.87,8.08h0Z"/>
        <g>
          <g>
            <path class="c" d="m142.9,118.12c0,1.24,1.71,1.56,3.24,2.45.67.39.5,1.95,1.59,1.95,0,0,.02,0,.03,0,0,0,.02,0,.03,0,1.09,0,.92-1.56,1.59-1.95,1.53-.89,3.24-1.22,3.24-2.45,0-2-9.72-2-9.72,0Z"/>
            <g>
              <path class="c" d="m142.55,127.61c-.74,0-1.52-.11-2.32-.32l.31-1.17c1.97.53,3.73.31,4.95-.63,1.1-.85,1.67-2.22,1.66-3.96h1.21c.01,2.09-.74,3.84-2.13,4.91-1,.77-2.26,1.17-3.68,1.17Z"/>
              <path class="c" d="m152.96,127.61c-1.41,0-2.68-.39-3.68-1.17-1.39-1.07-2.15-2.82-2.13-4.92h1.21c-.01,1.75.56,3.11,1.66,3.96,1.22.94,2.97,1.16,4.95.63l.31,1.17c-.8.22-1.58.32-2.32.32Z"/>
            </g>
          </g>
          <path class="e" d="m134.35,118.41s-11.07,5.87-20.39,2.18c-9.32-3.69-13.37-15.55-13.37-15.55,0,0,11.07-5.87,20.39-2.18,9.32,3.69,13.37,15.55,13.37,15.55Z"/>
          <path class="c" d="m134.35,118.41s-8.58,4.51-15.83,1.64-10.41-12.03-10.41-12.03c0,0,8.58-4.51,15.83-1.64,7.25,2.87,10.41,12.03,10.41,12.03Z"/>
          <path class="e" d="m160.9,118.41s11.07,5.87,20.39,2.18c9.32-3.69,13.37-15.55,13.37-15.55,0,0-11.07-5.87-20.39-2.18-9.32,3.69-13.37,15.55-13.37,15.55Z"/>
          <path class="c" d="m160.9,118.41s8.58,4.51,15.83,1.64c7.25-2.87,10.41-12.03,10.41-12.03,0,0-8.58-4.51-15.83-1.64-7.25,2.87-10.41,12.03-10.41,12.03Z"/>
          <circle class="g" cx="122.21" cy="113.6" r="7.26"/>
          <circle class="g" cx="172.98" cy="113.6" r="7.26"/>
        </g>
        <path class="e" d="m142.87,87.39c0,1.1-.85,2-1.9,2s-1.9-.89-1.9-2,.85-2,1.9-2,1.9.89,1.9,2Z"/>
        <path class="e" d="m156.38,87.39c0,1.1-.85,2-1.9,2s-1.9-.89-1.9-2,.85-2,1.9-2,1.9.89,1.9,2Z"/>
        <path class="f" d="m87.58,87.81c1.2-2.04,2.7-4.22,4.39-6.5l-5.11,4.18c.19.74.44,1.51.72,2.32Z"/>
        <path class="f" d="m207.93,87.81c-1.2-2.04-2.7-4.22-4.39-6.5l5.11,4.18c-.21.75-.45,1.52-.72,2.32Z"/>
      </g>
    </g>
  </g>
</svg>