<?xml version="1.0" encoding="UTF-8"?>
<svg id="a" data-name="Layer 1" xmlns="http://www.w3.org/2000/svg" viewBox="0 0 1000 1000">
  <defs>
    <style>
      .b {
        fill: #fff;
      }

      .c {
        fill: #190d1c;
      }

      .d {
        fill: #dcdbdb;
      }

      .e {
        fill: #9b4e9e;
      }

      .f {
        fill: #f7f7f7;
      }

      .g {
        fill: #fec010;
      }
    </style>
  </defs>
  <circle class="e" cx="500" cy="535.36" r="432.64"/>
  <g>
    <g>
      <path class="b" d="m302.48,796.38l-37.68,102.14c67.71,43.94,148.47,69.48,235.2,69.48s167.49-25.54,235.2-69.48l-37.68-102.14h-395.04Z"/>
      <path class="d" d="m623.22,796.38h-246.44c-3.79,36.49,5.98,69.69,26.42,100.29l6.01-19.44c8.38,33.1,25.85,59.13,60.73,74.12-3.72-9.65-1.58-24.99-1.58-24.99,5.18,13.47,15.6,25.02,31.64,34.49,16.04-9.47,26.46-21.01,31.64-34.49,0,0,2.14,15.35-1.58,24.99,34.87-14.99,52.35-41.03,60.73-74.12l6.01,19.44c20.45-30.6,30.21-63.8,26.42-100.29Z"/>
      <rect class="c" x="299.96" y="728.33" width="400.08" height="73.21"/>
      <g>
        <circle class="g" cx="499.86" cy="833.83" r="59.9" transform="translate(-425.85 1130.8) rotate(-76.84)"/>
        <path class="e" d="m511.49,880.69c-.04,3.01-5.5,5.38-12.2,5.3-6.7-.08-12.11-2.59-12.07-5.6.04-3.01,5.5-5.38,12.2-5.3,6.7.08,12.11,2.59,12.07,5.6Z"/>
        <rect class="e" x="492.31" y="885.31" width="13.87" height="2.95" transform="translate(-393.32 1375.62) rotate(-89.33)"/>
        <path class="g" d="m562.85,843.38h-125.98c-5.71,0-10.34-4.63-10.34-10.34h0c0-5.71,4.63-10.34,10.34-10.34h125.98c5.71,0,10.34,4.63,10.34,10.34h0c0,5.71-4.63,10.34-10.34,10.34Z"/>
        <rect class="e" x="440.16" y="821.22" width="119.39" height="2.95"/>
        <rect class="e" x="441.98" y="841.57" width="115.76" height="2.95"/>
      </g>
    </g>
    <g>
      <path class="b" d="m459.19,299.67C422.03,140.2,305.3,32,305.3,32c0,0-165.26,224.28-98.07,413.15l251.96-145.47Z"/>
      <path class="e" d="m381.94,329.2c-19.6-93.66-81.16-157.21-81.16-157.21,0,0-87.15,131.72-51.72,242.64l132.87-85.44Z"/>
      <path class="b" d="m540.81,299.67c37.16-159.47,153.89-267.67,153.89-267.67,0,0,165.26,224.28,98.07,413.15l-251.96-145.47Z"/>
      <path class="e" d="m618.06,329.2c19.6-93.66,81.16-157.21,81.16-157.21,0,0,87.15,131.72,51.72,242.64l-132.87-85.44Z"/>
      <path class="b" d="m825.25,518.79c-38.3-157.65-173.41-222.61-325.25-225.48-151.85,2.87-286.95,67.82-325.25,225.48,0,0-31.31,15.3-45.05,38.04,58.11,142.42,202.53,233.56,370.3,237.26,167.77-3.7,312.19-94.84,370.3-237.26-13.74-22.73-45.05-38.04-45.05-38.04Z"/>
      <path class="e" d="m499.86,564.32c-8.64-36.83-10.36-74.01-10.25-111.48.48-37.42,2.52-74.58,10.25-111.47,7.73,36.89,9.77,74.06,10.25,111.47.12,37.47-1.6,74.64-10.25,111.48h0Z"/>
      <path class="e" d="m674.82,718.36c-76.38,53.83-178.28,71.3-267.23,40.6-29.57-9.68-57.58-23.5-83.19-40.6,55.05,26.1,114.21,44.34,175.26,44.11,61.13-.14,120.04-18.04,175.16-44.11h0Z"/>
      <path class="e" d="m265.4,561.48c-27.02-4.58-36.32-36.45-23.13-58.38.36,5.96.47,11.59,1.1,17.01,1.14,16.91,10.1,29.68,22.03,41.37h0Z"/>
      <path class="e" d="m734.31,561.48c11.92-11.69,20.89-24.46,22.03-41.37.63-5.41.74-11.04,1.1-17.01,13.2,21.93,3.88,53.8-23.13,58.38h0Z"/>
      <path class="e" d="m480.03,506.47c-32.75-53.28-73.03-38.04-126.55-39.53-16.81-.38-41-6.2-42.21-27,0,0,1.89,2.59,1.89,2.59,9.09,12.8,25.6,10.61,39.73,8.78,24.28-3.4,51.61-9.24,77.14-3.3,28.53,5.97,48.76,29.38,50,58.46h0Z"/>
      <path class="e" d="m277.25,606.72c-21.03,12.77-49.11,11.33-68.47-4.71-19.57-15.6-26.19-44.89-15.01-66.65,4.98,20.31,11.96,38.42,27.89,50.71,9.66,7.7,22.98,12.59,35.43,15.92,6.72,1.65,13.39,2.88,20.15,4.73h0Z"/>
      <path class="e" d="m724.63,606.72c6.76-1.85,13.43-3.08,20.15-4.73,12.46-3.32,25.77-8.21,35.43-15.92,15.93-12.3,22.9-30.4,27.89-50.71,11.18,21.77,4.57,51.05-15.01,66.65-19.35,16.04-47.44,17.48-68.47,4.71h0Z"/>
      <path class="e" d="m519.97,506.47c1.2-29.02,21.53-52.55,50-58.46,25.52-5.94,52.86-.1,77.14,3.3,14.13,1.83,30.65,4.02,39.73-8.78l1.89-2.59c-1.24,20.82-25.39,26.61-42.22,27-53.51,1.47-93.85-13.72-126.55,39.53h0Z"/>
      <g>
        <g>
          <path class="c" d="m476.23,588.66c0,6.04,8.36,7.65,15.85,11.99,3.3,1.91,2.45,9.54,7.78,9.54.04,0,.09,0,.13,0,.04,0,.09,0,.13,0,5.33,0,4.49-7.63,7.78-9.54,7.49-4.35,15.85-5.95,15.85-11.99,0-9.8-47.53-9.8-47.53,0Z"/>
          <g>
            <path class="c" d="m474.52,635.1c-3.61,0-7.42-.52-11.35-1.58l1.53-5.7c9.66,2.6,18.26,1.5,24.21-3.09,5.38-4.15,8.19-10.84,8.14-19.35l5.91-.04c.07,10.27-3.64,18.82-10.44,24.07-4.89,3.77-11.07,5.7-18,5.7Z"/>
            <path class="c" d="m525.48,635.1c-6.92,0-13.1-1.93-17.99-5.7-6.8-5.25-10.5-13.79-10.44-24.07l5.91.04c-.06,8.51,2.76,15.2,8.14,19.35,5.95,4.6,14.54,5.7,24.21,3.09l1.53,5.7c-3.93,1.06-7.74,1.58-11.36,1.58Z"/>
          </g>
        </g>
        <path class="e" d="m434.39,590.09s-54.14,28.73-99.74,10.67c-45.6-18.06-65.4-76.07-65.4-76.07,0,0,54.14-28.73,99.74-10.67,45.6,18.06,65.4,76.07,65.4,76.07Z"/>
        <path class="c" d="m434.39,590.09s-41.98,22.05-77.43,8.01c-35.45-14.04-50.95-58.85-50.95-58.85,0,0,41.98-22.05,77.43-8.01,35.45,14.04,50.95,58.85,50.95,58.85Z"/>
        <path class="e" d="m564.31,590.09s54.14,28.73,99.74,10.67c45.6-18.06,65.4-76.07,65.4-76.07,0,0-54.14-28.73-99.74-10.67-45.6,18.06-65.4,76.07-65.4,76.07Z"/>
        <path class="c" d="m564.31,590.09s41.98,22.05,77.43,8.01c35.45-14.04,50.95-58.85,50.95-58.85,0,0-41.98-22.05-77.43-8.01-35.45,14.04-50.95,58.85-50.95,58.85Z"/>
        <circle class="g" cx="375.02" cy="566.56" r="35.51"/>
        <circle class="g" cx="623.42" cy="566.56" r="35.51"/>
      </g>
      <path class="e" d="m476.09,438.31c0,5.4-4.16,9.77-9.29,9.77s-9.29-4.37-9.29-9.77,4.16-9.77,9.29-9.77,9.29,4.37,9.29,9.77Z"/>
      <path class="e" d="m542.2,438.31c0,5.4-4.16,9.77-9.29,9.77s-9.29-4.37-9.29-9.77,4.16-9.77,9.29-9.77,9.29,4.37,9.29,9.77Z"/>
      <path class="f" d="m205.58,440.37c5.88-9.98,13.23-20.66,21.49-31.78l-24.99,20.45c.95,3.6,2.14,7.39,3.51,11.33Z"/>
      <path class="f" d="m794.41,440.37c-5.88-9.98-13.23-20.66-21.48-31.78l24.99,20.45c-1.02,3.65-2.2,7.44-3.51,11.33Z"/>
    </g>
  </g>
</svg>