<?xml version="1.0" encoding="UTF-8"?>
<svg id="a" data-name="Layer 1" xmlns="http://www.w3.org/2000/svg" viewBox="0 0 1000 1000">
  <defs>
    <style>
      .b {
        fill: #fff;
      }

      .c {
        fill: #190d1c;
      }

      .d {
        fill: #dcdbdb;
      }

      .e {
        fill: #9b4e9e;
      }

      .f {
        fill: #f7f7f7;
      }

      .g {
        fill: #fec010;
      }
    </style>
  </defs>
  <g>
    <path class="b" d="m228.89,895.19c-.43,0-.68,0-.93,0-8.72,0-17.45,0-26.17.01-.6,0-.99-.17-1.37-.66-8.48-10.91-16.98-21.8-25.47-32.69-.33-.42-.66-.85-1.13-1.44v34.72h-20.94c0-.37,0-.74,0-1.12,0-26.41,0-52.82,0-79.23,0-.6.05-1.2,0-1.79-.06-.66.2-.83.84-.82,5.83.02,11.67.01,17.5,0,.62,0,1.25.02,1.87,0,.52-.02.7.14.7.71-.01,7.52.01,15.05.02,22.57,0,3.57,0,7.14,0,10.8.12-.11.23-.17.3-.26,7.87-10.78,15.74-21.55,23.57-32.36.78-1.08,1.56-1.51,2.92-1.5,7.66.08,15.31.04,22.97.04.59,0,1.17,0,1.98,0-.45.59-.75,1-1.07,1.4-9.91,12.42-19.83,24.84-29.75,37.27-.11.14-.21.3-.35.42-.5.43-.38.8,0,1.26,2.4,2.93,4.78,5.88,7.17,8.83,8.97,11.09,17.93,22.17,26.9,33.26.11.14.22.28.44.57Z"/>
    <path class="b" d="m715.67,845.05c1.32-1.27,2.54-2.62,3.94-3.75,2.58-2.09,5.69-2.96,8.93-3.36,3.82-.47,7.59-.17,11.27.97,5.03,1.57,8.7,4.75,11.04,9.45.17.34.35.69.51,1.02.86-1.3,1.67-2.61,2.58-3.84,1.66-2.26,3.68-4.13,6.09-5.61,3.15-1.93,6.57-2.37,10.13-2.1,1.5.11,2.99.41,4.46.71,6.89,1.36,13.74,7.42,14.48,16.48.1,1.27.17,2.54.17,3.81.01,11.88,0,23.76.03,35.65,0,.66-.15.9-.86.9-6.12-.02-12.24,0-18.36,0-.13,0-.26-.03-.45-.05-.02-.2-.06-.39-.06-.59,0-9.94.04-19.87-.06-29.81-.02-2.04-.36-4.16-.99-6.1-1.38-4.24-4.88-5.81-9.22-5.12-3.48.56-6.28,4-6.28,7.59,0,10.56,0,21.12,0,31.68,0,.36,0,.73,0,1.09-.03,1.47.17,1.3-1.29,1.31-5.94.02-11.88.01-17.81.02-.17,0-.35-.03-.6-.06v-.95c0-9.18.04-18.37-.03-27.55-.02-2.14-.23-4.31-.61-6.41-1.01-5.49-5.06-7.66-10.32-6.68-3.7.69-5.75,2.99-6.36,6.83-.16.97-.24,1.96-.24,2.94-.02,10.09-.02,20.18-.03,30.27,0,1.58,0,1.6-1.57,1.6-5.83,0-11.67,0-17.5.02-.59,0-.68-.23-.68-.74.01-12.61.02-25.22.02-37.83,0-5.71,0-11.42-.03-17.12,0-.67.15-.89.86-.88,6.02.03,12.03.03,18.05.01.63,0,.85.15.84.82-.05,1.83-.02,3.66-.02,5.4Z"/>
    <path class="b" d="m504.47,895.14c.14-.41.26-.77.39-1.13,7.23-19.94,14.46-39.88,21.69-59.82,2.5-6.89,5-13.78,7.5-20.67.49-1.34.49-1.33,1.88-1.33,7.47,0,14.95,0,22.42-.01.56,0,.88.1,1.1.7,5.51,15.25,11.03,30.49,16.56,45.73,4.39,12.1,8.79,24.19,13.19,36.29.02.04,0,.1,0,.23-.2.02-.42.06-.63.06-7.29,0-14.58,0-21.88.01-.52,0-.77-.15-.94-.67-5.83-17.49-11.68-34.98-17.52-52.46-.37-1.11-.74-2.21-1.12-3.31-.06-.18-.15-.35-.33-.73-.17.55-.26.89-.37,1.22-4.45,13.31-8.9,26.63-13.35,39.94-1.72,5.13-3.45,10.26-5.15,15.4-.14.42-.29.63-.79.63-7.37-.02-14.74-.01-22.11-.02-.15,0-.3-.03-.53-.05Z"/>
    <path class="b" d="m433.31,839.05c-.99,1.03-1.89,2.03-2.85,2.97-6,5.87-12,11.74-18.01,17.6-1.69,1.65-3.39,3.3-5.12,4.91-.48.45-.22.68.08,1,3.24,3.41,6.48,6.82,9.72,10.23,5,5.28,9.99,10.58,14.99,15.86,1.12,1.18,2.27,2.34,3.57,3.69-.47.03-.71.05-.95.05-8.7,0-17.4,0-26.09.01-.6,0-1-.2-1.39-.64-5.59-6.32-11.2-12.63-16.82-18.94-.85-.95-1.72-1.88-2.58-2.81-.15-.17-.33-.31-.68-.64,0,.73,0,1.25,0,1.78,0,6.74-.02,13.49.02,20.23,0,.79-.21,1.02-1,1.02-5.96-.03-11.93-.02-17.89,0-.66,0-.83-.22-.83-.85.01-29.03,0-58.06,0-87.09,0-.53.04-.85.74-.85,6.07.02,12.13.01,18.2.01.23,0,.45.04.78.07v52.34c.07.04.14.07.21.11.49-.52.97-1.05,1.47-1.56,5.85-6.02,11.7-12.04,17.57-18.03.28-.28.75-.52,1.14-.52,8.33-.02,16.67,0,25,0,.23,0,.45.03.72.06Z"/>
    <path class="b" d="m467.93,897.69c-5.36.04-10.5-.86-15.35-3.11-7.82-3.63-13.56-9.32-16.19-17.59-3.19-10.02-2.02-19.58,4.47-28.08,4-5.23,9.34-8.69,15.73-10.54,5.31-1.54,10.67-1.95,16.14-1.29,5.33.65,10.41,2.08,14.91,5.11,7.66,5.16,12.13,12.32,13.15,21.51,1.06,9.48-1.63,17.76-8.39,24.59-4.75,4.8-10.58,7.63-17.27,8.63-2.39.36-4.8.53-7.21.78Zm.31-17.45c1.78-.19,4.03-.52,5.95-1.83,4.89-3.34,7.03-7.92,5.95-13.81-1.32-7.2-8.58-12.24-15.9-9.82-7.01,2.32-10.69,10.5-7.79,17.45,1.96,4.69,6.64,8.01,11.79,8.01Z"/>
    <path class="b" d="m292.01,866.95c.51-12.67,6.38-21.87,17.99-27.18,5.84-2.67,12.1-3.32,18.47-2.84,4.73.36,9.32,1.39,13.54,3.6,8.52,4.45,13.93,11.38,15.65,20.82,2.16,11.86-1.43,21.84-10.92,29.45-4.44,3.56-9.63,5.65-15.32,6.23-3.04.31-6.13.61-9.18.43-9.58-.54-17.77-4.16-23.86-11.75-3.7-4.6-5.76-9.92-6.22-15.83-.08-.98-.1-1.97-.15-2.95Zm20.62-.59c0,2.96.54,5.24,1.72,7.34,3.59,6.39,11.48,8.59,17.76,4.26,4.84-3.33,6.84-9.64,4.75-15.27-2.07-5.57-6.16-8.47-11.5-8.53-7.88-.09-12.81,6.62-12.72,12.19Z"/>
    <path class="b" d="m817.69,870.45c.1,2.39.39,4.63,1.32,6.75,1.5,3.43,4.2,5.2,7.82,5.8,2.86.48,5.66.4,8.3-.94,2.81-1.43,4.45-3.67,4.61-6.88,0-.13.03-.25.06-.49.44,0,.88,0,1.31,0,5.57.03,11.14.08,16.71.08.68,0,.78.22.77.85-.04,4.51-1.41,8.55-4.18,12.12-2.35,3.02-5.47,4.96-8.9,6.5-3.63,1.63-7.47,2.33-11.38,2.81-9.52,1.17-18.13-1.13-25.77-6.85-4.61-3.45-7.52-8.09-9.1-13.6-1.17-4.05-1.3-8.19-1.09-12.34.36-6.88,2.5-13.11,7.29-18.24,3.12-3.35,6.9-5.71,11.24-7.2,5.37-1.84,10.86-2.5,16.52-1.79,3.13.39,6.23.8,9.16,2.06,7.28,3.14,11.85,8.61,14.22,16.07,1.52,4.77,2.08,9.66,2.09,14.64,0,.48-.15.63-.62.63-1.61-.01-3.23.02-4.84.02-11.56,0-23.12,0-34.68,0-.23,0-.46,0-.85,0Zm.61-11.62c.21.03.31.05.41.05,6.93.01,13.85.02,20.78.04.54,0,.6-.27.55-.69-.36-2.57-1.4-4.72-3.58-6.3-2.55-1.85-5.38-2.34-8.43-2.02-3.17.33-5.97,1.4-7.93,4.06-1.05,1.42-1.76,2.97-1.79,4.85Z"/>
    <path class="b" d="m256.92,866.09c1.31-2.57,2.57-5.06,3.84-7.55,3.24-6.38,6.49-12.76,9.72-19.14.21-.41.42-.64.93-.63,6.59.02,13.18.03,19.77.04.1,0,.2.02.46.05-.16.39-.28.74-.45,1.06-3.12,5.94-6.26,11.88-9.37,17.83-2.86,5.46-5.71,10.94-8.56,16.41-4.12,7.91-8.24,15.82-12.36,23.73-2.91,5.59-5.81,11.18-8.72,16.77-.96,1.84-1.93,3.67-2.87,5.52-.2.38-.4.58-.88.58-6.2-.02-12.4-.01-18.59-.01-.17,0-.34-.03-.58-.05.11-.27.19-.49.29-.69,4.16-8.18,8.33-16.35,12.49-24.53,1.28-2.52,2.58-5.03,3.82-7.56.16-.33.17-.89,0-1.21-5.84-10.84-11.72-21.66-17.59-32.49-2.59-4.79-5.18-9.58-7.77-14.37-.16-.29-.28-.59-.48-1.02.41,0,.68,0,.94,0,7.16,0,14.32,0,21.48-.03.64,0,.91.26,1.17.78,3.62,7.32,7.25,14.62,10.9,21.93.76,1.52,1.57,3.02,2.41,4.61Z"/>
    <path class="b" d="m595.26,895.29v-56.4h19.64v6.64c.31-.35.45-.51.59-.67,3.51-4.12,8.11-6.25,13.38-6.94,4.5-.59,8.95-.21,13.17,1.61,6.23,2.68,9.72,7.54,10.9,14.07.39,2.17.33,4.43.37,6.65.05,2.98,0,5.97-.01,8.95,0,7.65,0,15.31,0,22.96,0,.75-.02,1.51.07,2.25.1.78-.19.97-.93.96-5.49-.02-10.99,0-16.48-.01-.72,0-1.66.16-2.08-.22-.36-.33-.16-1.31-.16-2.01,0-8.69.06-17.38-.03-26.07-.02-2.42-.29-4.87-.78-7.24-.53-2.54-1.85-4.73-4.52-5.63-4.02-1.35-7.73-.81-10.81,2.27-1.72,1.73-2.35,4.02-2.56,6.37-.16,1.75-.11,3.52-.12,5.29,0,8.77,0,17.54.01,26.3,0,.66-.12.95-.89.95-6.09-.03-12.19,0-18.28,0-.15,0-.3-.04-.5-.07Z"/>
    <path class="b" d="m684.11,895.21h-19.51v-56.26c.53,0,1.02,0,1.51,0,5.73,0,11.46.01,17.19-.02.67,0,.82.21.82.84-.01,17.74,0,35.49,0,53.23,0,.7,0,1.4,0,2.21Z"/>
    <path class="g" d="m674.34,806.2c5.77.1,10.76,4.54,10.72,11.23-.03,5.55-4.12,10.94-10.98,10.89-5.84-.04-10.65-4.98-10.57-11.05.08-6.23,4.71-10.97,10.83-11.07Z"/>
    <path class="g" d="m557.52,880.75c-.04,6.08-5.03,11.05-11.06,10.93-5.54-.11-10.58-4.91-10.48-11.15.1-6.16,4.86-11.02,10.88-10.99,5.94.03,10.71,5.05,10.67,11.21Z"/>
  </g>
  <g>
    <circle class="e" cx="505.77" cy="450.65" r="319.2"/>
    <g>
      <g>
        <path class="b" d="m360.04,643.22l-27.8,75.36c49.96,32.42,109.54,51.26,173.53,51.26s123.57-18.84,173.53-51.27l-27.8-75.36h-291.46Z"/>
        <path class="d" d="m596.69,643.22h-181.83c-2.79,26.92,4.41,51.42,19.5,73.99l4.43-14.35c6.18,24.42,19.08,43.63,44.81,54.69-2.74-7.12-1.16-18.44-1.16-18.44,3.82,9.94,11.51,18.46,23.34,25.45,11.83-6.99,19.52-15.5,23.34-25.45,0,0,1.58,11.32-1.16,18.44,25.73-11.06,38.62-30.27,44.81-54.69l4.43,14.35c15.09-22.58,22.29-47.07,19.5-73.99Z"/>
        <rect class="c" x="358.18" y="593.02" width="295.18" height="54.02"/>
        <g>
          <circle class="g" cx="505.67" cy="670.86" r="44.19" transform="translate(-262.67 1010.57) rotate(-76.84)"/>
          <path class="e" d="m514.25,705.43c-.03,2.22-4.06,3.97-9,3.91-4.94-.06-8.93-1.91-8.9-4.13.03-2.22,4.06-3.97,9-3.91,4.94.06,8.93,1.91,8.9,4.13Z"/>
          <rect class="e" x="500.1" y="708.84" width="10.23" height="2.18" transform="translate(-210.57 1206.81) rotate(-89.33)"/>
          <path class="g" d="m552.14,677.9h-92.95c-4.21,0-7.63-3.42-7.63-7.63h0c0-4.21,3.42-7.63,7.63-7.63h92.95c4.21,0,7.63,3.42,7.63,7.63h0c0,4.21-3.42,7.63-7.63,7.63Z"/>
          <rect class="e" x="461.63" y="661.55" width="88.09" height="2.18"/>
          <rect class="e" x="462.97" y="676.57" width="85.41" height="2.18"/>
        </g>
      </g>
      <g>
        <path class="b" d="m475.66,276.75c-27.42-117.66-113.54-197.49-113.54-197.49,0,0-121.93,165.47-72.35,304.82l185.9-107.33Z"/>
        <path class="e" d="m418.67,298.54c-14.46-69.1-59.88-115.99-59.88-115.99,0,0-64.3,97.18-38.16,179.02l98.03-63.04Z"/>
        <path class="b" d="m535.88,276.75c27.42-117.66,113.54-197.49,113.54-197.49,0,0,121.93,165.47,72.35,304.82l-185.9-107.33Z"/>
        <path class="e" d="m592.88,298.54c14.46-69.1,59.88-115.99,59.88-115.99,0,0,64.3,97.18,38.16,179.02l-98.03-63.04Z"/>
        <path class="b" d="m745.75,438.42c-28.26-116.32-127.94-164.24-239.97-166.36-112.03,2.12-211.71,50.04-239.97,166.36,0,0-23.1,11.29-33.24,28.06,42.88,105.08,149.43,172.32,273.21,175.05,123.78-2.73,230.33-69.97,273.21-175.05-10.14-16.77-33.24-28.06-33.24-28.06Z"/>
        <path class="e" d="m505.67,472.01c-6.38-27.17-7.65-54.6-7.56-82.25.35-27.61,1.86-55.03,7.56-82.25,5.7,27.22,7.2,54.64,7.56,82.25.09,27.65-1.18,55.07-7.56,82.25h0Z"/>
        <path class="e" d="m634.76,585.66c-56.35,39.71-131.54,52.6-197.17,29.96-21.82-7.14-42.48-17.34-61.38-29.96,40.61,19.26,84.27,32.72,129.31,32.54,45.1-.1,88.56-13.31,129.24-32.54h0Z"/>
        <path class="e" d="m332.69,469.92c-19.93-3.38-26.8-26.89-17.06-43.07.27,4.4.35,8.55.81,12.55.84,12.48,7.45,21.9,16.25,30.52h0Z"/>
        <path class="e" d="m678.65,469.92c8.8-8.62,15.41-18.05,16.25-30.52.47-3.99.54-8.15.81-12.55,9.74,16.18,2.86,39.7-17.07,43.07h0Z"/>
        <path class="e" d="m491.04,429.33c-24.16-39.31-53.88-28.07-93.37-29.17-12.4-.28-30.25-4.57-31.15-19.92,0,0,1.4,1.91,1.4,1.91,6.71,9.44,18.88,7.83,29.31,6.48,17.92-2.51,38.08-6.81,56.91-2.43,21.05,4.41,35.98,21.67,36.89,43.13h0Z"/>
        <path class="e" d="m341.43,503.3c-15.52,9.42-36.24,8.36-50.52-3.47-14.44-11.51-19.32-33.12-11.07-49.17,3.67,14.98,8.82,28.35,20.57,37.42,7.13,5.68,16.96,9.29,26.14,11.74,4.96,1.22,9.88,2.12,14.87,3.49h0Z"/>
        <path class="e" d="m671.51,503.3c4.99-1.36,9.91-2.27,14.87-3.49,9.19-2.45,19.02-6.06,26.14-11.74,11.75-9.08,16.9-22.43,20.57-37.42,8.25,16.06,3.37,37.66-11.07,49.17-14.28,11.84-35,12.9-50.52,3.47h0Z"/>
        <path class="e" d="m520.51,429.33c.88-21.41,15.89-38.77,36.89-43.13,18.83-4.38,39-.07,56.91,2.43,10.42,1.35,22.61,2.96,29.31-6.48l1.4-1.91c-.92,15.36-18.73,19.64-31.15,19.92-39.48,1.09-69.24-10.12-93.37,29.17h0Z"/>
        <g>
          <g>
            <path class="c" d="m488.24,489.97c0,4.46,6.17,5.64,11.7,8.85,2.43,1.41,1.81,7.04,5.74,7.04.03,0,.07,0,.1,0,.03,0,.06,0,.1,0,3.93,0,3.31-5.63,5.74-7.04,5.53-3.21,11.7-4.39,11.7-8.85,0-7.23-35.07-7.23-35.07,0Z"/>
            <g>
              <path class="c" d="m486.98,524.23c-2.66,0-5.47-.39-8.38-1.17l1.13-4.21c7.12,1.92,13.47,1.11,17.86-2.28,3.97-3.06,6.05-8,6-14.28l4.36-.03c.05,7.58-2.68,13.89-7.7,17.76-3.61,2.78-8.17,4.21-13.28,4.21Z"/>
              <path class="c" d="m524.57,524.23c-5.11,0-9.66-1.42-13.27-4.21-5.02-3.87-7.75-10.18-7.7-17.76l4.36.03c-.04,6.28,2.03,11.21,6,14.28,4.39,3.39,10.73,4.2,17.86,2.28l1.13,4.21c-2.9.78-5.71,1.17-8.38,1.17Z"/>
            </g>
          </g>
          <path class="e" d="m457.37,491.03s-39.95,21.2-73.59,7.87c-33.65-13.32-48.25-56.12-48.25-56.12,0,0,39.95-21.2,73.59-7.87,33.65,13.32,48.25,56.12,48.25,56.12Z"/>
          <path class="c" d="m457.37,491.03s-30.97,16.27-57.13,5.91c-26.16-10.36-37.59-43.42-37.59-43.42,0,0,30.97-16.27,57.13-5.91,26.16,10.36,37.59,43.42,37.59,43.42Z"/>
          <path class="e" d="m553.22,491.03s39.95,21.2,73.59,7.87c33.65-13.32,48.25-56.12,48.25-56.12,0,0-39.95-21.2-73.59-7.87-33.65,13.32-48.25,56.12-48.25,56.12Z"/>
          <path class="c" d="m553.22,491.03s30.97,16.27,57.13,5.91c26.16-10.36,37.59-43.42,37.59-43.42,0,0-30.97-16.27-57.13-5.91-26.16,10.36-37.59,43.42-37.59,43.42Z"/>
          <circle class="g" cx="413.57" cy="473.66" r="26.2"/>
          <circle class="g" cx="596.83" cy="473.66" r="26.2"/>
        </g>
        <path class="e" d="m488.13,379.05c0,3.98-3.07,7.21-6.85,7.21s-6.85-3.23-6.85-7.21,3.07-7.21,6.85-7.21,6.85,3.23,6.85,7.21Z"/>
        <path class="e" d="m536.91,379.05c0,3.98-3.07,7.21-6.85,7.21s-6.85-3.23-6.85-7.21,3.07-7.21,6.85-7.21,6.85,3.23,6.85,7.21Z"/>
        <path class="f" d="m288.55,380.56c4.34-7.36,9.76-15.25,15.85-23.45l-18.44,15.09c.7,2.66,1.58,5.45,2.59,8.36Z"/>
        <path class="f" d="m722.99,380.56c-4.34-7.36-9.76-15.25-15.85-23.45l18.44,15.09c-.75,2.69-1.62,5.49-2.59,8.36Z"/>
      </g>
    </g>
    <g>
      <g>
        <g>
          <path class="e" d="m102.42,859.14c-8.71-11.31-14.46-20.85-28.88-20.97-7.58-.48-18.95,1.55-27.97-1.06-6.96-1.66-11.96-8.26-10.47-15.4,4.62,6.61,8.61,6.98,16.31,5.04,6.48-1.48,13.88-3.76,22.53-3.68,19.73-.41,32.4,17.32,28.47,36.08h0Z"/>
          <path class="e" d="m111.13,859.14c-1.38-19.47-2.64-30.65-20.92-40.66-11.98-6.95-28.8-15.28-28.3-31.74.34-5.91,2.86-11.47,6.17-15.75-.08,8.41.2,17.24,7.01,22.24,9.17,7.01,26.15,11.24,35.25,21.76,11.72,11.98,10.33,31.55.79,44.15h0Z"/>
        </g>
        <g>
          <path class="e" d="m897.58,859.14c-3.98-18.67,8.82-36.56,28.47-36.08,8.65-.08,16.05,2.2,22.53,3.68,7.73,1.94,11.68,1.58,16.31-5.04,1.48,7.15-3.5,13.74-10.47,15.4-9.03,2.62-20.39.58-27.97,1.06-14.41.12-20.17,9.66-28.88,20.97h0Z"/>
          <path class="e" d="m888.88,859.14c-9.54-12.61-10.93-32.17.79-44.15,9.1-10.51,26.09-14.75,35.25-21.76,6.81-5,7.09-13.83,7.01-22.24,3.31,4.27,5.83,9.84,6.17,15.75.49,16.46-16.32,24.78-28.3,31.74-18.32,10.07-19.52,21.17-20.92,40.67h0Z"/>
        </g>
      </g>
      <g>
        <circle class="g" cx="116.69" cy="793.01" r="8.39"/>
        <circle class="g" cx="883.31" cy="793.01" r="8.39"/>
      </g>
    </g>
  </g>
</svg>